HIERARCHY
ROOT Hips
{
	OFFSET 0.00000 0.00000 0.00000
	CHANNELS 6 Xposition Yposition Zposition Yrotation Zrotation Xrotation 
	JOINT Lumbar
	{
		OFFSET 0 0 0
		CHANNELS 3 Zrotation Xrotation Yrotation
		JOINT Neck
		{
			OFFSET 0.00 0.2701 0.00
			CHANNELS 3 Zrotation Xrotation Yrotation
			End Site
			{
				OFFSET 0.00 0.1379 0.00
			}
		}
		JOINT RightShoulder
		{
			OFFSET 0.0119 0.2289 0.1181
			CHANNELS 3 Zrotation Xrotation Yrotation
			JOINT RightElbow
			{
				OFFSET 0.00 -0.1475 0.00
				CHANNELS 2 Zrotation Yrotation
				JOINT RightWrist
				{
					OFFSET 0.00 -0.1605 0.00
					CHANNELS 2 Zrotation Xrotation
					End Site
					{
						OFFSET 0.0040 -0.1068 0.0006
					}
				}
			}
		}
		JOINT LeftShoulder
		{
			OFFSET 0.0119 0.2289 -0.1181
			CHANNELS 3 Zrotation Xrotation Yrotation
			JOINT LeftElbow
			{
				OFFSET 0.00 -0.1475 0.00
				CHANNELS 2 Zrotation Yrotation
				JOINT LeftWrist
				{
					OFFSET 0.00 -0.1605 0.00
					CHANNELS 2 Zrotation Xrotation
					End Site
					{
						OFFSET 0.0040 -0.1068 -0.0006
					}
				}
			}
		}
	}
	JOINT RightHip
	{
		OFFSET 0.0316 -0.0424 0.0458
		CHANNELS 3 Zrotation Xrotation Yrotation
		JOINT RightKnee
		{
			OFFSET 0.00 -0.2438 0.00
			CHANNELS 1 Zrotation
			JOINT RightAnkle
			{
				OFFSET 0.00 -0.2449 0.00
				CHANNELS 3 Zrotation Xrotation Yrotation
				End Site
				{
					OFFSET 0.1237 -0.0542 0.0051
				}
			}
		}
	}
	JOINT LeftHip
	{
		OFFSET 0.0316 -0.0424 -0.0458
		CHANNELS 3 Zrotation Xrotation Yrotation
		JOINT LeftKnee
		{
			OFFSET 0.00 -0.2438 0.00
			CHANNELS 1 Zrotation
			JOINT LeftAnkle
			{
				OFFSET 0.00 -0.2449 0.00
				CHANNELS 3 Zrotation Xrotation Yrotation
				End Site
				{
					OFFSET 0.1237 -0.0542 -0.0051
				}
			}
		}
	}
}
MOTION
Frames: 16
Frame Time: 0.02
0.7262 -0.184 0.0289 184.58848 -4.60937 0.92432 13.96987 -1.41285 -1.31638 8.88726 -6.43173 -2.11994 36.1874 14.90046 31.29381 127.86678 75.21457 18.18284 -4.16767 26.13028 -8.55232 6.33059 19.16625 -50.29164 -23.38226 -3.16966 112.81994 -10.67497 -1.99756 -120.64029 -15.81085 -0.59597 -2.92313 80.87857 11.70496 3.64885 -56.26626 -17.56242 1.28661 3.36302
0.72533 -0.18346 0.02915 184.65694 -5.01327 0.83215 14.26123 -1.36277 -1.22054 8.8767 -6.21706 -2.11994 36.29373 14.89529 31.06236 127.89037 75.07283 18.34399 -4.18561 24.9867 -8.15998 4.05541 20.74642 -52.66883 -22.42198 -2.85052 112.87851 -10.68888 -1.99864 -121.745 -15.69214 -0.56127 -2.89895 80.71007 11.94544 4.03567 -54.50519 -17.75854 1.21968 3.33801
0.72429 -0.1828 0.02939 184.70949 -5.47775 0.73873 14.5871 -1.30601 -1.11443 8.92309 -6.00314 -2.11994 36.47466 14.88949 30.82653 127.89976 74.94423 18.52268 -4.19963 23.69922 -7.62653 1.02101 22.47377 -55.47081 -21.14403 -2.50956 112.88512 -10.71256 -1.88594 -122.82193 -15.4838 -0.53555 -2.87518 80.52547 12.23151 4.53438 -52.75282 -17.94405 1.15768 3.3153
0.72331 -0.1822 0.02964 184.76703 -5.91308 0.64336 14.89339 -1.25109 -1.01698 8.94663 -5.78527 -2.11994 36.6202 14.88406 30.59382 127.91819 74.80846 18.68829 -4.21588 22.48433 -7.16658 -1.58422 24.11921 -57.99167 -20.0588 -2.18752 112.91532 -10.72613 -1.81507 -123.90625 -15.31836 -0.50246 -2.84975 80.34578 12.47716 4.92941 -51.01588 -18.13118 1.09574 3.29257
0.72238 -0.18159 0.02986 184.83471 -6.35965 0.55795 15.2203 -1.20097 -0.90246 8.95742 -5.58286 -2.11994 36.77488 14.87827 30.3533 127.92412 74.67762 18.8757 -4.23029 21.22751 -6.67098 -4.5353 25.84269 -60.8987 -18.76926 -1.82443 112.93966 -10.76211 -1.78152 -125.01319 -15.14148 -0.48248 -2.83006 80.1784 12.80049 5.53269 -49.19131 -18.33203 1.02368 3.26531
0.72132 -0.18098 0.03014 184.87753 -6.79451 0.45178 15.50986 -1.13913 -0.8219 9.00775 -5.34809 -2.11994 36.92604 14.87308 30.12952 127.95345 74.53881 19.02271 -4.24765 20.03071 -6.21491 -6.94822 27.42962 -63.10021 -17.82754 -1.54258 112.96691 -10.75496 -1.64496 -126.0638 -14.96917 -0.43796 -2.79889 79.97984 12.9777 5.74328 -47.5559 -18.49953 0.97385 3.24791
0.71992 -0.18037 0.03056 184.85173 -7.19424 0.28852 15.6998 -1.0497 -0.82773 9.15966 -5.02686 -2.11994 37.06244 14.86949 29.94871 128.04967 74.38637 19.04171 -4.27317 19.00552 -5.89897 -7.71064 28.64465 -63.20657 -17.95334 -1.49367 113.00551 -10.6184 -1.25121 -126.9961 -14.81702 -0.31956 -2.73342 79.71134 12.70564 4.73021 -46.4128 -18.60535 0.98637 3.2596
0.71841 -0.17977 0.03105 184.80199 -7.57734 0.10461 15.84808 -0.94833 -0.86956 9.34823 -4.6726 -2.11994 37.18973 14.86656 29.78612 128.17063 74.22405 19.02108 -4.30188 18.05277 -5.62775 -7.90348 29.7081 -62.59374 -18.43504 -1.52714 113.05118 -10.43965 -0.75861 -127.86775 -14.67524 -0.177 -2.6569 79.41048 12.29117 3.33768 -45.46591 -18.67388 1.02078 3.2808
0.71695 -0.17917 0.03152 184.76567 -7.95977 -0.06984 16.00744 -0.85033 -0.90165 9.51601 -4.33125 -2.11994 37.31264 14.86347 29.61833 128.28093 74.05803 19.02697 -4.32981 17.08688 -5.33775 -8.34395 30.81226 -62.33574 -18.73501 -1.52123 113.10063 -10.28557 -0.31203 -128.74694 -14.53849 -0.04808 -2.58709 79.11514 11.96568 2.1954 -44.44733 -18.7406 1.04379 3.29605
0.71544 -0.17852 0.03193 184.71828 -8.37932 -0.24506 16.2021 -0.76031 -0.90657 9.70344 -3.99822 -2.11994 37.47534 14.85977 29.43713 128.38716 73.92454 18.99944 -4.35505 16.03085 -5.03632 -8.85557 32.04015 -61.9745 -19.10835 -1.5227 113.11913 -10.10875 0.14392 -129.70779 -14.35808 0.09197 -2.51008 78.85438 11.5417 0.73643 -43.35321 -18.88293 1.07302 3.31805
0.71403 -0.17799 0.03249 184.68821 -8.71655 -0.42309 16.31176 -0.6515 -0.97532 9.85759 -3.64071 -2.11994 37.55057 14.8575 29.28849 128.50929 73.72392 19.02952 -4.38637 15.18352 -4.77123 -9.07704 32.97305 -61.65216 -19.4174 -1.52865 113.20389 -9.96896 0.60145 -130.48688 -14.27148 0.21446 -2.44552 78.51872 11.28549 -0.16448 -42.46543 -18.86301 1.09452 3.32845
0.71292 -0.17775 0.03348 184.71406 -8.83219 -0.60782 16.20608 -0.4889 -1.2241 9.91323 -3.21756 -2.11994 37.39838 14.85908 29.22381 128.65741 73.3125 19.24868 -4.43648 14.88031 -4.59556 -8.60536 33.12051 -61.6078 -19.46471 -1.52723 113.47473 -9.94369 1.04528 -130.75761 -14.44822 0.28452 -2.41733 77.94382 11.55284 0.65481 -42.07745 -18.36994 1.0886 3.30257
0.71192 -0.17763 0.0346 184.75779 -8.86496 -0.79388 16.01439 -0.30882 -1.53357 9.93341 -2.77212 -2.11994 37.15589 14.86207 29.19182 128.82273 72.83852 19.52348 -4.49214 14.78821 -4.45572 -7.86305 32.9765 -61.62608 -19.43609 -1.52755 113.81097 -9.95689 1.4851 -130.8509 -14.71801 0.33575 -2.40218 77.30168 11.98901 2.03243 -41.89379 -17.72102 1.07428 3.26505
0.71089 -0.17746 0.03564 184.792 -8.93422 -0.97676 15.85585 -0.13986 -1.80701 9.96797 -2.34079 -2.11994 36.94657 14.86437 29.14559 128.9883 72.41194 19.75914 -4.54337 14.60955 -4.30003 -7.26179 32.97101 -61.61716 -19.44194 -1.52691 114.11486 -9.95096 1.92267 -131.04049 -14.9414 0.39439 -2.38154 76.71762 12.33091 3.09687 -41.63178 -17.16634 1.06421 3.23413
0.70975 -0.17725 0.03679 184.83139 -9.00775 -1.17139 15.72093 0.04321 -2.11732 10.01109 -1.89119 -2.11994 36.77018 14.86689 29.09641 129.12158 71.90684 20.05113 -4.60252 14.39322 -4.14353 -6.5663 32.93689 -61.5786 -19.46017 -1.52976 114.43171 -9.94989 2.38276 -131.1649 -15.18316 0.45874 -2.35871 76.01866 12.74179 4.39793 -41.31803 -16.51274 1.05295 3.19801
0.70888 -0.17716 0.03773 184.86436 -9.05307 -1.34142 15.51695 0.20052 -2.36487 10.02755 -1.47514 -2.11994 36.5039 14.86929 29.06214 129.32473 71.54816 20.24049 -4.64677 14.30519 -3.99719 -6.0084 32.89247 -61.62534 -19.42996 -1.52479 114.73495 -9.94917 2.79145 -131.37988 -15.40774 0.50638 -2.34366 75.54043 13.05114 5.34512 -41.1547 -16.02713 1.04205 3.16984
